<?xml version="1.0" standalone="no"?>
<!DOCTYPE svg PUBLIC "-//W3C//DTD SVG 20010904//EN"
 "http://www.w3.org/TR/2001/REC-SVG-20010904/DTD/svg10.dtd">
<svg version="1.0" xmlns="http://www.w3.org/2000/svg"
 width="16.000000pt" height="16.000000pt" viewBox="0 0 16.000000 16.000000"
 preserveAspectRatio="xMidYMid meet">
<metadata>
Created by potrace 1.11, written by Peter Selinger 2001-2013
</metadata>
<g transform="translate(0.000000,16.000000) scale(0.005333,-0.005333)"
fill="#000000" stroke="none">
<path d="M0 1500 l0 -1500 1500 0 1500 0 0 1500 0 1500 -1500 0 -1500 0 0
-1500z m1628 1385 c421 -68 724 -273 940 -635 192 -321 250 -731 156 -1104
-73 -292 -231 -536 -469 -721 -194 -151 -386 -239 -630 -287 -93 -19 -144 -23
-325 -23 -144 0 -238 5 -285 14 -409 81 -732 366 -811 716 -24 107 -25 305 -1
395 24 90 87 214 146 286 97 120 258 223 402 261 l69 17 0 241 c0 132 -3 297
-7 368 l-6 127 -34 0 c-45 0 -97 23 -117 51 -22 32 -20 95 5 135 43 71 242
137 489 163 140 14 376 12 478 -4z"/>
<path d="M1191 2635 c-40 -8 -77 -17 -81 -22 -5 -4 -11 -184 -15 -399 l-8
-392 63 -7 c268 -31 538 -218 566 -393 13 -84 -38 -152 -114 -152 -51 0 -80
20 -180 129 -77 83 -106 107 -165 136 -41 20 -95 38 -126 42 l-54 6 6 -159 c4
-87 10 -248 14 -356 l6 -197 -26 -40 c-38 -58 -68 -75 -121 -69 -85 10 -137
73 -139 172 -1 28 2 178 6 334 7 218 6 282 -3 282 -26 0 -137 -61 -181 -100
-138 -119 -204 -326 -165 -521 42 -209 181 -379 391 -480 118 -57 217 -80 375
-86 364 -15 655 95 904 341 149 147 246 311 298 504 30 112 36 346 13 484 -53
319 -227 619 -445 768 -230 157 -546 224 -819 175z"/>
</g>
</svg>
